<svg width="76" height="48" viewBox="0 0 76 48" fill="none" xmlns="http://www.w3.org/2000/svg">
<path d="M55.2514 14.5498H43.6484V32.7831H55.2514V29.0485H47.5161V25.314H53.7473V21.7992H47.5161V18.2843H55.2514V14.5498Z" fill="#D63384"/>
<path d="M36.8447 25.1593L20.2773 17.1033V20.1515C20.3804 21.2625 20.6323 21.6937 21.6204 22.07L38.6963 30.4919V27.5543C38.5818 26.3716 38.2039 25.8364 36.8447 25.1593Z" fill="#D63384"/>
<path d="M61.1535 29.0441C60.0141 27.4715 59.4056 25.5767 59.4162 23.6348L63.5323 23.6572C63.5265 24.7241 63.8608 25.7652 64.4868 26.6292C65.1128 27.4932 65.9978 28.1352 67.0134 28.4621C68.029 28.789 69.1224 28.7837 70.1348 28.447C71.1473 28.1103 71.2379 27.7197 72.7425 27.4461C74.2471 27.1725 76.0001 28.9724 76.0001 28.9724C74.876 30.556 73.2765 31.7401 71.4337 32.3529C69.591 32.9657 67.6009 32.9753 65.7523 32.3804C63.9037 31.7854 62.2928 30.6168 61.1535 29.0441Z" fill="#D63384"/>
<path d="M61.1535 18.3252C60.0141 19.8979 59.4056 21.7927 59.4162 23.7346L63.5323 23.7122C63.5265 22.6452 63.8608 21.6042 64.4868 20.7402C65.1128 19.8762 65.9978 19.2342 67.0134 18.9073C68.029 18.5804 69.1224 18.5857 70.1348 18.9224C71.1473 19.2591 71.2379 19.6497 72.7425 19.9233C74.2471 20.1968 76.0001 18.397 76.0001 18.397C74.876 16.8134 73.2765 15.6293 71.4337 15.0165C69.591 14.4037 67.6009 14.394 65.7523 14.989C63.9037 15.584 62.2928 16.7526 61.1535 18.3252Z" fill="#D63384"/>
<path d="M4.14392 23.6664H0V14.5498H7.63354C12.868 14.5498 16.5757 18.8911 16.5757 23.6664H12.4318C12.4318 20.8446 10.3598 18.674 7.63354 18.674C6.01929 18.6314 4.14392 18.674 4.14392 18.674V23.6664Z" fill="#D63384"/>
<path d="M4.14392 23.6663H0V32.783H7.63354C12.868 32.783 16.5757 28.4417 16.5757 23.6663H12.4318C12.4318 26.4881 10.3598 28.6588 7.63354 28.6588C6.01929 28.7014 4.14392 28.6588 4.14392 28.6588V23.6663Z" fill="#D63384"/>
<path d="M30.6785 0H27.4414C29.2212 5.00649 30.3169 7.80293 32.3923 12.7777C33.1562 13.779 33.6579 14.2282 34.8677 14.5498H38.676L33.1539 2.14516C32.354 0.617519 31.814 0.152977 30.6785 0Z" fill="#19E6E6"/>
<path d="M28.916 6.44619C28.916 5.52532 26.7519 0.736788 26.7519 0.736788C25.5087 0.644703 23.5625 7.27159 20.2598 14.5499H23.9292C24.8283 14.1787 25.2703 13.7771 25.9992 12.8002C26.5637 11.9714 28.916 6.81454 28.916 6.44619Z" fill="#009A9C"/>
<path d="M28.257 47.3328H31.4941C29.7143 42.3263 28.6187 39.5298 26.5433 34.5551C25.7794 33.5538 25.2776 33.1046 24.0679 32.783H20.2595L25.7816 45.1876C26.5816 46.7152 27.1216 47.1798 28.257 47.3328Z" fill="#19E6E6"/>
<path d="M30.0196 40.8866C30.0196 41.8074 32.1836 46.596 32.1836 46.596C33.4268 46.6881 35.373 40.0612 38.6758 32.7829H35.0063C34.1072 33.154 33.6652 33.5556 32.9364 34.5326C32.3718 35.3613 30.0196 40.5182 30.0196 40.8866Z" fill="#009A9C"/>
</svg>
