<svg width="79" height="201" viewBox="0 0 79 201" fill="none" xmlns="http://www.w3.org/2000/svg">
<path d="M70.2661 106.597L0.0727539 72.4648V85.3797C0.509272 90.087 1.57667 91.9137 5.76306 93.5081L78.1112 129.19V116.744C77.6257 111.733 76.0247 109.466 70.2661 106.597Z" fill="#D63384"/>
<path d="M44.1467 0H30.4316C37.9724 21.2117 42.6145 33.0598 51.4076 54.137C54.6443 58.3793 56.77 60.2826 61.8956 61.6451H78.031L54.6347 9.0887C51.2454 2.61633 48.9576 0.64814 44.1467 0Z" fill="#19E6E6"/>
<path d="M36.6752 27.311C36.6752 23.4095 27.5064 3.12121 27.5064 3.12121C22.2393 2.73105 13.9936 30.8081 0.000244141 61.645H15.5472C19.3564 60.0727 21.2292 58.3712 24.3173 54.232C26.7092 50.7206 36.6752 28.8717 36.6752 27.311Z" fill="#009A9C"/>
<path d="M33.8843 200.541H47.5994C40.0586 179.329 35.4165 167.481 26.6234 146.404C23.3867 142.162 21.261 140.258 16.1354 138.896H-1.52588e-05L23.3963 191.452C26.7856 197.925 29.0734 199.893 33.8843 200.541Z" fill="#19E6E6"/>
<path d="M41.3568 173.23C41.3568 177.132 50.5255 197.42 50.5255 197.42C55.7927 197.81 64.0384 169.733 78.0317 138.896H62.4848C58.6755 140.468 56.8028 142.17 53.7147 146.309C51.3228 149.82 41.3568 171.669 41.3568 173.23Z" fill="#009A9C"/>
</svg>
